<svg width="23" height="24" viewBox="0 0 23 24" fill="none" xmlns="http://www.w3.org/2000/svg">
<path d="M22.249 16.1979L19.708 6.83049C19.1654 4.82667 17.9831 3.06606 16.3492 1.82887C14.7153 0.591687 12.7238 -0.0509783 10.6917 0.00316083C8.65947 0.0573 6.70338 0.805132 5.1347 2.12764C3.56603 3.45014 2.47493 5.27132 2.03504 7.30131L0.0696471 16.3479C-0.0254536 16.7862 -0.0231339 17.2407 0.0764349 17.6779C0.176004 18.1152 0.370281 18.524 0.644933 18.8741C0.919585 19.2243 1.2676 19.507 1.66331 19.7012C2.05902 19.8955 2.49232 19.9964 2.93125 19.9965H6.45645C6.68076 21.1264 7.28007 22.1422 8.15283 22.8718C9.02559 23.6014 10.1181 24 11.2453 24C12.3725 24 13.4651 23.6014 14.3378 22.8718C15.2106 22.1422 15.8099 21.1264 16.0342 19.9965H19.4255C19.8772 19.9963 20.3226 19.8894 20.7272 19.6841C21.1318 19.4788 21.4845 19.1807 21.7579 18.813C22.0313 18.4453 22.218 18.018 22.3033 17.5644C22.3887 17.1108 22.3704 16.6432 22.25 16.1979H22.249ZM11.2453 21.9957C10.6411 21.9932 10.0524 21.7997 9.55975 21.4419C9.06711 21.084 8.6946 20.5792 8.49319 19.9965H13.9975C13.7961 20.5792 13.4236 21.084 12.9309 21.4419C12.4383 21.7997 11.8496 21.9932 11.2453 21.9957ZM20.2025 17.6024C20.1113 17.726 19.9931 17.8261 19.8574 17.8947C19.7216 17.9633 19.572 17.9984 19.4206 17.9973H2.93125C2.78491 17.9972 2.64044 17.9636 2.5085 17.8988C2.37657 17.8341 2.26055 17.7398 2.16899 17.623C2.07743 17.5063 2.01268 17.37 1.97952 17.2242C1.94636 17.0784 1.94563 16.9268 1.97738 16.7807L3.94278 7.73415C4.2891 6.14096 5.14616 4.7119 6.37774 3.67414C7.60931 2.63637 9.1447 2.04947 10.7398 2.00673C12.335 1.96399 13.8983 2.46786 15.1813 3.43824C16.4643 4.40863 17.3934 5.78983 17.8208 7.36229L20.3618 16.7297C20.4033 16.8779 20.4105 17.0338 20.3829 17.1853C20.3552 17.3368 20.2935 17.4796 20.2025 17.6024Z" fill="white"/>
</svg>
