<svg width="24" height="24" viewBox="0 0 24 24" fill="none" xmlns="http://www.w3.org/2000/svg">
<g clip-path="url(#clip0_4_2)">
<path d="M11.2818 15C11.021 15 10.771 15.1054 10.5866 15.2929C10.4023 15.4804 10.2987 15.7348 10.2987 16V19C10.2987 19.7957 9.98796 20.5587 9.43488 21.1213C8.88179 21.6839 8.13164 22 7.34946 22H4.91537C4.13319 22 3.38304 21.6839 2.82996 21.1213C2.27687 20.5587 1.96615 19.7957 1.96615 19V5C1.96615 4.20435 2.27687 3.44129 2.82996 2.87868C3.38304 2.31607 4.13319 2 4.91537 2H7.34946C8.13164 2 8.88179 2.31607 9.43488 2.87868C9.98796 3.44129 10.2987 4.20435 10.2987 5V8C10.2987 8.26522 10.4023 8.51957 10.5866 8.70711C10.771 8.89464 11.021 9 11.2818 9C11.5425 9 11.7925 8.89464 11.9769 8.70711C12.1613 8.51957 12.2648 8.26522 12.2648 8V5C12.2633 3.67441 11.7449 2.40356 10.8234 1.46622C9.90196 0.528882 8.65262 0.00158786 7.34946 0H4.91537C3.61221 0.00158786 2.36288 0.528882 1.4414 1.46622C0.51993 2.40356 0.00156098 3.67441 0 5V19C0.00156098 20.3256 0.51993 21.5964 1.4414 22.5338C2.36288 23.4711 3.61221 23.9984 4.91537 24H7.34946C8.65262 23.9984 9.90196 23.4711 10.8234 22.5338C11.7449 21.5964 12.2633 20.3256 12.2648 19V16C12.2648 15.7348 12.1613 15.4804 11.9769 15.2929C11.7925 15.1054 11.5425 15 11.2818 15Z" fill="white"/>
<path d="M22.48 9.879L17.9716 5.293C17.8809 5.19749 17.7724 5.12131 17.6525 5.0689C17.5325 5.01649 17.4035 4.9889 17.273 4.98775C17.1425 4.9866 17.013 5.0119 16.8922 5.06218C16.7714 5.11246 16.6616 5.18671 16.5693 5.2806C16.477 5.3745 16.404 5.48615 16.3546 5.60905C16.3052 5.73194 16.2803 5.86362 16.2814 5.9964C16.2826 6.12918 16.3097 6.2604 16.3612 6.3824C16.4127 6.50441 16.4876 6.61475 16.5815 6.707L20.7724 10.97L5.89844 11C5.63772 11 5.38767 11.1054 5.20331 11.2929C5.01894 11.4804 4.91537 11.7348 4.91537 12C4.91537 12.2652 5.01894 12.5196 5.20331 12.7071C5.38767 12.8946 5.63772 13 5.89844 13L20.8294 12.97L16.5795 17.293C16.4856 17.3852 16.4108 17.4956 16.3592 17.6176C16.3077 17.7396 16.2806 17.8708 16.2795 18.0036C16.2783 18.1364 16.3032 18.2681 16.3526 18.391C16.4021 18.5138 16.4751 18.6255 16.5674 18.7194C16.6597 18.8133 16.7694 18.8875 16.8902 18.9378C17.0111 18.9881 17.1405 19.0134 17.271 19.0123C17.4016 19.0111 17.5306 18.9835 17.6505 18.9311C17.7704 18.8787 17.8789 18.8025 17.9696 18.707L22.478 14.121C23.0311 13.5587 23.3421 12.7959 23.3425 12.0004C23.3428 11.2049 23.0326 10.4418 22.48 9.879Z" fill="white"/>
</g>
<defs>
<clipPath id="clip0_4_2">
<rect width="24" height="24" fill="white"/>
</clipPath>
</defs>
</svg>
